<svg xmlns="http://www.w3.org/2000/svg" width="20" height="20" fill="none" viewBox="0 0 20 20">
  <g clip-path="url(#a)">
    <path fill="#000" d="M10.002 4.843c-2.837 0-5.126 2.177-5.126 4.875 0 2.699 2.289 4.875 5.126 4.875 2.838 0 5.127-2.176 5.127-4.875 0-2.698-2.29-4.875-5.127-4.875Zm0 8.045c-1.834 0-3.333-1.422-3.333-3.17s1.495-3.17 3.333-3.17 3.333 1.422 3.333 3.17-1.499 3.17-3.333 3.17Zm6.532-8.244c0 .632-.535 1.137-1.195 1.137-.665 0-1.196-.51-1.196-1.137 0-.628.535-1.137 1.195-1.137s1.196.509 1.196 1.137Zm3.396 1.154c-.076-1.523-.442-2.872-1.615-3.984-1.17-1.112-2.588-1.46-4.19-1.536-1.65-.09-6.6-.09-8.25 0C4.278.35 2.86.698 1.685 1.81.512 2.92.151 4.27.07 5.794c-.093 1.57-.093 6.275 0 7.845.076 1.523.442 2.872 1.615 3.984 1.174 1.111 2.588 1.46 4.19 1.535 1.65.09 6.6.09 8.25 0 1.602-.072 3.02-.42 4.19-1.535 1.168-1.112 1.534-2.461 1.615-3.985.093-1.57.093-6.27 0-7.84Zm-2.133 9.525c-.348.832-1.022 1.472-1.9 1.807-1.317.497-4.44.382-5.895.382-1.454 0-4.582.11-5.894-.382a3.296 3.296 0 0 1-1.9-1.807c-.523-1.252-.402-4.222-.402-5.605s-.116-4.357.401-5.605c.348-.831 1.022-1.472 1.901-1.807 1.316-.496 4.44-.382 5.894-.382 1.455 0 4.582-.11 5.894.382a3.296 3.296 0 0 1 1.901 1.807c.522 1.252.401 4.222.401 5.605s.121 4.358-.401 5.605Z"/>
  </g>
  <defs>
    <clipPath id="a">
      <path fill="#fff" d="M0 .211h20v19.014H0z"/>
    </clipPath>
  </defs>
</svg>
