<svg xmlns="http://www.w3.org/2000/svg" width="20" height="20" fill="none" viewBox="0 0 20 20">
  <g clip-path="url(#a)">
    <path fill="#000" d="M20 9.718C20 4.466 15.524.211 10 .211S0 4.466 0 9.718c0 4.745 3.657 8.678 8.438 9.392v-6.644h-2.54V9.718h2.54V7.624c0-2.383 1.491-3.699 3.776-3.699 1.095 0 2.24.186 2.24.186v2.338h-1.262c-1.242 0-1.63.733-1.63 1.485v1.784h2.774l-.444 2.748h-2.33v6.644C16.343 18.396 20 14.463 20 9.718Z"/>
  </g>
  <defs>
    <clipPath id="a">
      <path fill="#fff" d="M0 .211h20v19.014H0z"/>
    </clipPath>
  </defs>
</svg>
